Coordinates
version=1
nRows=13
nColumns=40
inDegrees=yes

Units are S.I. units (second, meters, Newtons, ...)
If the header above contains a line with 'inDegrees', this indicates whether rotational values are in degrees (yes) or radians (no).

endheader
time	pelvis_tilt	pelvis_list	pelvis_rotation	pelvis_tx	pelvis_ty	pelvis_tz	hip_flexion_r	hip_adduction_r	hip_rotation_r	knee_angle_r	knee_angle_r_beta	ankle_angle_r	subtalar_angle_r	mtp_angle_r	hip_flexion_l	hip_adduction_l	hip_rotation_l	knee_angle_l	knee_angle_l_beta	ankle_angle_l	subtalar_angle_l	mtp_angle_l	lumbar_extension	lumbar_bending	lumbar_rotation	arm_flex_r	arm_add_r	arm_rot_r	elbow_flex_r	pro_sup_r	wrist_flex_r	wrist_dev_r	arm_flex_l	arm_add_l	arm_rot_l	elbow_flex_l	pro_sup_l	wrist_flex_l	wrist_dev_l
      2.69000000	    -32.64198252	      5.49697408	     -5.92954768	     -0.42614884	      0.59772425	     -0.90116284	    110.07184093	    -21.88079119	     11.69655406	    104.23948469	      1.81932222	     28.17652991	      0.00000000	      0.00000000	    106.71874340	    -32.99420415	      2.72846786	    106.27927206	      1.85492322	     35.42688879	      0.00000000	      0.00000000	    -21.90537763	     -6.03480632	      3.23326400	     17.70680553	    -54.33929950	     89.61939862	     91.81663936	     88.81403917	      0.00000000	      0.00000000	     19.84805423	    -58.67325104	     89.63584335	     98.36455857	     88.54958271	      0.00000000	      0.00000000
      2.69500000	    -32.60131772	      5.52444137	     -6.12641174	     -0.42617653	      0.59773783	     -0.90063592	    110.01318357	    -21.64339704	     11.65435482	    104.22376835	      1.81904792	     28.18109661	      0.00000000	      0.00000000	    106.70658728	    -33.25155024	      2.76647022	    106.31171813	      1.85548951	     35.42378516	      0.00000000	      0.00000000	    -21.93843735	     -6.14916983	      3.43532833	     17.66778639	    -54.31731817	     89.61938999	     91.84517246	     88.77264262	      0.00000000	      0.00000000	     19.90130075	    -58.71655763	     89.63725489	     98.37313337	     88.60761743	      0.00000000	      0.00000000
      2.70000000	    -32.67812689	      5.57554865	     -6.23629014	     -0.42638589	      0.59759245	     -0.90045117	    110.13164935	    -21.48522842	     11.67273901	    104.19334014	      1.81851684	     27.86980458	      0.00000000	      0.00000000	    106.81353851	    -33.36916720	      2.77858790	    106.33392832	      1.85587716	     35.43043903	      0.00000000	      0.00000000	    -21.84876588	     -6.23548178	      3.56434711	     17.61766237	    -54.28075163	     89.62082565	     91.71842963	     88.81896440	      0.00000000	      0.00000000	     19.91246465	    -58.70265573	     89.64331625	     98.31775987	     88.41684487	      0.00000000	      0.00000000
      2.70500000	    -32.59826620	      5.44717824	     -6.09027465	     -0.42622032	      0.59778422	     -0.90087748	    109.96296073	    -21.71072731	     11.58465496	    104.21436383	      1.81888378	     28.18215793	      0.00000000	      0.00000000	    106.75212855	    -33.16300262	      2.85039494	    106.31947328	      1.85562487	     35.44320737	      0.00000000	      0.00000000	    -21.99475172	     -6.02230718	      3.49471615	     17.64564784	    -54.38520734	     89.61931601	     91.89269807	     88.79737900	      0.00000000	      0.00000000	     19.94005206	    -58.63328289	     89.63708990	     98.27897252	     88.59905730	      0.00000000	      0.00000000
      2.71000000	    -32.59626960	      5.46841013	     -6.16836611	     -0.42632108	      0.59776699	     -0.90076833	    109.97312908	    -21.61799511	     11.58562190	    104.19656753	      1.81857317	     28.18527395	      0.00000000	      0.00000000	    106.76316910	    -33.25118251	      2.85784361	    106.33208769	      1.85584503	     35.44547744	      0.00000000	      0.00000000	    -21.99915667	     -6.06452321	      3.59307228	     17.63085742	    -54.40416418	     89.61979864	     91.89643927	     88.78197666	      0.00000000	      0.00000000	     19.97220736	    -58.61024985	     89.63909413	     98.23125267	     88.61638888	      0.00000000	      0.00000000
      2.71500000	    -32.57301253	      5.43017146	     -6.11271862	     -0.42630721	      0.59774619	     -0.90097257	    109.93821461	    -21.71391650	     11.55982622	    104.21538181	      1.81890154	     28.20304011	      0.00000000	      0.00000000	    106.75372629	    -33.16639648	      2.87979512	    106.33059157	      1.85581892	     35.44576061	      0.00000000	      0.00000000	    -22.04979323	     -5.98862596	      3.58417802	     17.62565490	    -54.44751366	     89.61903558	     91.93954792	     88.77876667	      0.00000000	      0.00000000	     20.00341463	    -58.59411269	     89.63843464	     98.24318337	     88.63285029	      0.00000000	      0.00000000
      2.72000000	    -32.67858771	      5.38374160	     -5.93998515	     -0.42639579	      0.59754091	     -0.90153633	    110.06702417	    -21.90927543	     11.57944410	    104.21290861	      1.81885838	     28.15682204	      0.00000000	      0.00000000	    106.86549079	    -32.90585906	      2.90260775	    106.30865617	      1.85543607	     35.63368796	      0.00000000	      0.00000000	    -21.94270748	     -5.83615724	      3.51636653	     17.55008726	    -54.48452619	     89.61874438	     91.85728866	     88.77685988	      0.00000000	      0.00000000	     20.02680232	    -58.46949604	     89.64614851	     98.06466831	     88.51518082	      0.00000000	      0.00000000
      2.72500000	    -32.66656508	      5.41691569	     -5.99929885	     -0.42652032	      0.59747271	     -0.90144537	    110.08043376	    -21.82120932	     11.61874063	    104.21426276	      1.81888201	     28.09763756	      0.00000000	      0.00000000	    106.87985762	    -32.95700803	      2.91228746	    106.32954348	      1.85580063	     35.38869034	      0.00000000	      0.00000000	    -21.96568174	     -5.89196174	      3.55336476	     17.57309037	    -54.53443630	     89.61838509	     92.00034144	     88.79504149	      0.00000000	      0.00000000	     19.98835788	    -58.53330220	     89.63961759	     98.22306547	     88.58935349	      0.00000000	      0.00000000
      2.73000000	    -32.58860854	      5.52125822	     -6.10349749	     -0.42645309	      0.59761929	     -0.90126120	    110.05139447	    -21.69307937	     11.70767771	    104.20611215	      1.81873976	     28.09084772	      0.00000000	      0.00000000	    106.70762321	    -33.12405165	      2.75978093	    106.33718744	      1.85593404	     35.50240053	      0.00000000	      0.00000000	    -22.05844976	     -6.04736132	      3.61049119	     17.59024366	    -54.49050360	     89.61927767	     91.98637026	     88.80106693	      0.00000000	      0.00000000	     20.01442063	    -58.58291133	     89.63758768	     98.24501639	     88.58947134	      0.00000000	      0.00000000
      2.73500000	    -32.56323409	      5.40820596	     -6.23632852	     -0.42647723	      0.59764718	     -0.90088703	    109.90985665	    -21.55881259	     11.52716880	    104.18868880	      1.81843566	     28.21821705	      0.00000000	      0.00000000	    106.81556967	    -33.24956801	      2.99644594	    106.38327291	      1.85673838	     35.49702498	      0.00000000	      0.00000000	    -22.09855042	     -5.97789543	      3.80364657	     17.57214752	    -54.51168101	     89.61993534	     92.01226086	     88.77881322	      0.00000000	      0.00000000	     20.04378954	    -58.56028206	     89.63976409	     98.19822315	     88.62603311	      0.00000000	      0.00000000
      2.74000000	    -32.61031091	      5.42286006	     -6.40968306	     -0.42661960	      0.59747570	     -0.90046942	    109.94614940	    -21.33821727	     11.47293913	    104.16426046	      1.81800931	     28.15534623	      0.00000000	      0.00000000	    106.91713512	    -33.47840225	      3.04817256	    106.39845472	      1.85700335	     35.47964595	      0.00000000	      0.00000000	    -22.01760933	     -6.05555714	      3.98280578	     17.55467498	    -54.50066881	     89.62098658	     92.01637087	     88.77544304	      0.00000000	      0.00000000	     20.03836465	    -58.58149364	     89.64137690	     98.24255185	     88.62779611	      0.00000000	      0.00000000
      2.74500000	    -32.62679639	      5.47125121	     -6.26039009	     -0.42666811	      0.59746755	     -0.90101558	    110.03160032	    -21.50765844	     11.59514108	    104.16668938	      1.81805170	     28.10156186	      0.00000000	      0.00000000	    106.85076599	    -33.25600149	      2.93112375	    106.37271488	      1.85655411	     35.53268877	      0.00000000	      0.00000000	    -22.03477523	     -6.02169866	      3.84343181	     17.55234322	    -54.54354469	     89.62171984	     92.06478488	     88.80430751	      0.00000000	      0.00000000	     20.02089913	    -58.57691657	     89.64192805	     98.24457410	     88.57473894	      0.00000000	      0.00000000
      2.75000000	    -32.64304393	      5.46536765	     -6.21705397	     -0.42670454	      0.59747902	     -0.90121332	    110.03953156	    -21.56186806	     11.60746192	    104.14355551	      1.81764794	     28.12199842	      0.00000000	      0.00000000	    106.86616107	    -33.18757953	      2.92425759	    106.37717286	      1.85663192	     35.53402839	      0.00000000	      0.00000000	    -22.03387533	     -5.98719084	      3.82565857	     17.53313839	    -54.55298731	     89.62267138	     92.11785824	     88.78004919	      0.00000000	      0.00000000	     20.03745350	    -58.57344316	     89.64198374	     98.26204941	     88.59489861	      0.00000000	      0.00000000
